<svg xmlns="http://www.w3.org/2000/svg" viewBox="0 0 64 64" fill="none">
  <!-- Green circular background -->
  <circle cx="32" cy="32" r="32" fill="#16a34a"/>
  
  <!-- Recycling symbol in white -->
  <g fill="#ffffff" stroke="#ffffff" stroke-width="1.5" stroke-linecap="round" stroke-linejoin="round">
    <!-- Top arrow -->
    <path d="M32 12 L26 22 L32 20 L38 22 Z" fill="#ffffff"/>
    <path d="M32 12 L32 20" stroke-width="2.5"/>
    
    <!-- Bottom right arrow -->
    <path d="M48 42 L42 32 L44 38 L38 42 Z" fill="#ffffff"/>
    <path d="M48 42 L44 38" stroke-width="2.5"/>
    
    <!-- Bottom left arrow -->
    <path d="M16 42 L22 32 L20 38 L26 42 Z" fill="#ffffff"/>
    <path d="M16 42 L20 38" stroke-width="2.5"/>
    
    <!-- Circular arrows connecting -->
    <path d="M32 20 Q36 24 40 32" stroke="#ffffff" stroke-width="3" fill="none"/>
    <path d="M44 38 Q40 44 32 46" stroke="#ffffff" stroke-width="3" fill="none"/>
    <path d="M20 38 Q16 32 18 24 Q20 20 26 18" stroke="#ffffff" stroke-width="3" fill="none"/>
  </g>
  
  <!-- Center leaf accent -->
  <path d="M32 28 Q34 32 32 36 Q30 32 32 28 Z" fill="#d1fae5" opacity="0.8"/>
</svg>
