<svg xmlns="http://www.w3.org/2000/svg" viewBox="0 0 32 32" fill="none">
  <!-- Green circular background -->
  <circle cx="16" cy="16" r="16" fill="#16a34a"/>
  
  <!-- Simple leaf icon in white -->
  <path d="M16 6 C10 6 8 12 8 16 C8 18 9 20 11 21 C11 18 12 15 14 13 C13 15 13 17 14 19 C15 17 16 15 18 14 C17 16 17 18 18 20 C19 19 20 18 20 16 C20 12 18 6 16 6 Z" fill="#ffffff"/>
  
  <!-- Recycling symbol accent -->
  <g transform="translate(20, 20) scale(0.35)" fill="#d1fae5" opacity="0.9">
    <path d="M12 0 L8 6 L12 5 L16 6 Z"/>
    <path d="M20 12 L14 10 L16 14 L12 16 Z"/>
    <path d="M4 12 L10 10 L8 14 L12 16 Z"/>
  </g>
</svg>
